# AST/ASF file generated using VICON BodyLanguage
# -----------------------------------------------
:version 1.10
:name VICON
:units
  mass 1.0
  length 0.45
  angle deg
:documentation
   .ast/.asf automatically generated from VICON data using
   VICON BodyBuilder and BodyLanguage model FoxedUp or BRILLIANT.MOD
:root
   order TX TY TZ RX RY RZ
   axis XYZ
   position 0 0 0  
   orientation 0 0 0 
:bonedata
  begin
     id 1 
     name lhipjoint
     direction 0.710188 -0.616876 0.339259 
     length 2.5669 
     axis 0 0 0  XYZ
  end
  begin
     id 2 
     name lfemur
     direction 0.34202 -0.939693 0  
     length 7.12796  
     axis 0 0 20  XYZ
    dof rx ry rz
    limits (-160.0 20.0)
           (-70.0 70.0)
           (-60.0 70.0)
  end
  begin
     id 3 
     name ltibia
     direction 0.34202 -0.939693 0   
     length 7.58108   
     axis 0 0 20   XYZ
    dof rx
    limits (-10.0 170.0)
  end
  begin
     id 4 
     name lfoot
     direction 0.0669471 -0.183936 0.980656   
     length 2.17365   
     axis -90 7.62852e-016 20   XYZ
    dof rx rz
    limits (-45.0 90.0)
           (-70.0 20.0)
  end
  begin
     id 5 
     name ltoes
     direction 1.53508e-011 -4.21705e-011 1   
     length 1.09427   
     axis -90 7.62852e-016 20   XYZ
    dof rx
    limits (-90.0 20.0)
  end
  begin
     id 6 
     name rhipjoint
     direction -0.700191 -0.625589 0.34405   
     length 2.53115  
     axis 0 0 0  XYZ 
  end
  begin
     id 7 
     name rfemur
     direction -0.34202 -0.939693 0   
     length 7.33006   
     axis 0 0 -20   XYZ
    dof rx ry rz
    limits (-160.0 20.0)
           (-70.0 70.0)
           (-70.0 60.0)
  end
  begin
     id 8 
     name rtibia
     direction -0.34202 -0.939693 0   
     length 7.64926   
     axis 0 0 -20   XYZ
    dof rx
    limits (-10.0 170.0)
 end
 begin
     id 9 
     name rfoot
     direction -0.0688927 -0.189281 0.979503   
     length 2.20493  
     axis -90 -7.62852e-016 -20   XYZ
    dof rx rz
    limits (-45.0 90.0)
           (-20.0 70.0)
  end
  begin
     id 10 
     name rtoes
     direction -1.53567e-011 -4.21933e-011 1   
     length 1.10919   
     axis -90 -7.62852e-016 -20   XYZ
    dof rx
    limits (-90.0 20.0)
  end
  begin
     id 11 
     name lowerback
     direction -0.0167868 0.989873 -0.140959   
     length 2.14596   
     axis 0 0 0   XYZ
    dof rx ry rz
    limits (-20.0 45.0)
           (-30.0 30.0)
           (-30.0 30.0)
  end
  begin
     id 12 
     name upperback
     direction 0.0129109 0.998033 0.0613525   
     length 2.10457   
     axis 0 0 0   XYZ
    dof rx ry rz
    limits (-20.0 45.0)
           (-30.0 30.0)
           (-30.0 30.0)
  end
  begin
     id 13 
     name thorax
     direction 0.0177047 0.991119 0.131797   
     length 2.17652   
     axis 0 0 0   XYZ
    dof rx ry rz
    limits (-20.0 45.0)
           (-30.0 30.0)
           (-30.0 30.0)
  end
  begin
     id 14 
     name lowerneck
     direction -0.0336893 0.997548 0.0613464   
     length 1.8912   
     axis 0 0 0   XYZ
    dof rx ry rz
    limits (-20.0 45.0)
           (-30.0 30.0)
           (-30.0 30.0)
  end
  begin
     id 15 
     name upperneck
     direction 0.0435909 0.997179 -0.0611028   
     length 1.8829   
     axis 0 0 0   XYZ
    dof rx ry rz
    limits (-20.0 45.0)
           (-30.0 30.0)
           (-30.0 30.0)
  end
  begin
     id 16
     name head
     direction 0.0175076 0.999444 -0.0283782  
     length 1.93197  
     axis 0 0 0   XYZ
    dof rx ry rz
    limits (-20.0 45.0)
           (-30.0 30.0)
           (-30.0 30.0)
  end
  begin
     id 17 
     name lclavicle
     direction 0.919164 0.389875 0.0559876  
     length 3.60004  
     axis 0 0 0   XYZ
    dof ry rz
    limits (-20.0 10.0)
           (0.0 20.0)
  end
  begin
     id 18 
     name lhumerus
     direction 1 -4.48958e-011 6.89191e-027   
     length 5.43301   
     axis 180 -30 -90   XYZ
    dof rx ry rz
    limits (-60.0 90.0)
           (-90.0 90.0)
           (-90.0 90.0)
  end
  begin
     id 19
     name lradius
     direction 1 -4.4897e-011 3.24727e-027   
     length 3.15936   
     axis 180 -30 -90   XYZ
    dof rx
    limits (-10.0 170.0)
  end
  begin
     id 20
     name lwrist
     direction 1 -4.4897e-011 9.00228e-027   
     length 1.57968   
     axis -6.29373e-015 90 90   XYZ
    dof ry
    limits (-180.0 0.0)
 end
  begin
     id 21 
     name lhand
     direction 1 -4.48968e-011 1.80042e-026   
     length 0.712827   
     axis -1.14882e-014 90 90   XYZ
    dof rx rz
    limits (-90.0 90.0)
           (-45.0 45.0)
  end
  begin
     id 22 
     name lfingers
     direction 1 -4.49019e-011 3.60267e-026   
     length 0.574699   
     axis -2.29769e-014 90 90   XYZ
    dof rx
    limits (0.0 90.0)
  end
  begin
     id 23
     name lthumb
     direction 0.707107 -6.3498e-011 0.707107   
     length 0.825157   
     axis -90 45 5.37419e-014   XYZ
    dof rx rz
    limits (-45.0 45.0)
           (-45.0 45.0)
  end
  begin
     id 24 
     name rclavicle
     direction -0.890334 0.455305 -0.00132111   
     length 3.51494  
     axis 0 0 0   XYZ 
    dof ry rz
    limits (-10.0 20.0)
           (-20.0 0.0)
  end
  begin
     id 25 
     name rhumerus
     direction -1 -4.48967e-011 5.07175e-028  
     length 5.34194   
     axis 180 30 90   XYZ
    dof rx ry rz
    limits (-90.0 60.0)
           (-90.0 90.0)
           (-90.0 90.0)
  end
  begin
     id 26 
     name rradius
     direction -1 -4.48955e-011 3.30467e-027   
     length 3.19351   
     axis 180 30 90   XYZ
    dof rx
    limits (-10.0 170.0)
  end
  begin
     id 27 
     name rwrist
     direction -1 -4.48968e-011 9.00208e-027   
     length 1.59676   
     axis -6.29373e-015 -90 -90   XYZ
    dof ry
    limits (-180.0 0.0)
  end
  begin
     id 28
     name rhand
     direction -1 -4.49e-011 1.80099e-026   
     length 0.743862   
     axis -1.14882e-014 -90 -90   XYZ
    dof rx rz
    limits (-90.0 90.0)
           (-45.0 45.0)
  end
  begin
     id 29
     name rfingers
     direction -1 -4.49009e-011 3.6023e-026   
     length 0.599721   
     axis -2.29769e-014 -90 -90   XYZ
    dof rx
    limits (0.0 90.0)
  end
  begin
     id 30
     name rthumb
     direction -0.707107 -6.35025e-011 0.707107   
     length 0.861083   
     axis -90 -45 -5.37419e-014   XYZ
    dof rx rz
    limits (-45.0 45.0)
           (-45.0 45.0)
  end
:hierarchy
  begin
    root lhipjoint rhipjoint lowerback
    lhipjoint lfemur
    lfemur ltibia
    ltibia lfoot
    lfoot ltoes
    rhipjoint rfemur
    rfemur rtibia
    rtibia rfoot
    rfoot rtoes
    lowerback upperback
    upperback thorax
    thorax lowerneck lclavicle rclavicle
    lowerneck upperneck
    upperneck head
    lclavicle lhumerus
    lhumerus lradius
    lradius lwrist
    lwrist lhand lthumb
    lhand lfingers
    rclavicle rhumerus
    rhumerus rradius
    rradius rwrist
    rwrist rhand rthumb
    rhand rfingers
  end

#!OML:ASF H:\Martial Arts Walks\Project 1\Capture day 1\Session 1\male.ASF
:FULLY-SPECIFIED
:DEGREES
1
root -2.72962 13.9166 -35.8842 7.91209 -22.5979 -10.7553
lowerback 7.75091 2.7879 3.10784
upperback -1.7437 4.19842 2.82889
thorax -6.16613 2.00497 0.671957
lowerneck -6.85728 0.347487 -2.28588
upperneck 14.253 0.0334531 4.79628
head 5.41195 0.212991 1.87826
rclavicle 4.28381e-014 -1.31198e-014
rhumerus -43.791 18.0724 -80.6962
rradius 102.198
rwrist 17.9635
rhand -26.5461 -27.9675
rfingers 7.12502
rthumb 0.0182882 -57.9473
lclavicle 4.28381e-014 -1.31198e-014
lhumerus -18.291 -14.4522 83.6784
lradius 92.5665
lwrist 5.36975
lhand -34.4975 16.4713
lfingers 7.12502
lthumb -7.65973 46.3126
rfemur 10.7337 -4.08821 12.8727
rtibia 39.8538
rfoot -32.9203 -29.8926
rtoes -32.192
lfemur -65.8692 29.5642 -11.4243
ltibia 80.0702
lfoot -16.5317 1.30438
ltoes -0.791165
2
root -2.73039 13.9151 -35.8832 7.90601 -22.5999 -10.7345
lowerback 7.74095 2.76974 3.06751
upperback -1.74901 4.17108 2.84843
thorax -6.17058 1.99336 0.718552
lowerneck -6.82794 0.354414 -2.30876
upperneck 14.2462 0.0500277 4.7655
head 5.40418 0.217351 1.87326
rclavicle 7.48424e-014 2.50469e-014
rhumerus -43.8114 18.1492 -80.6974
rradius 102.216
rwrist 17.9374
rhand -26.6094 -28.014
rfingers 7.12502
rthumb -0.0428645 -57.9938
lclavicle 7.48424e-014 2.50469e-014
lhumerus -18.3295 -14.3883 83.6931
lradius 92.5716
lwrist 5.36796
lhand -34.5523 16.5057
lfingers 7.12502
lthumb -7.71267 46.3451
rfemur 10.7353 -4.09189 12.848
rtibia 39.8663
rfoot -32.9197 -29.9181
rtoes -32.0726
lfemur -65.8755 29.5488 -11.4434
ltibia 80.0879
lfoot -16.5403 1.35218
ltoes -0.920197
3
root -2.73066 13.9141 -35.8824 7.92649 -22.5874 -10.7613
lowerback 7.72291 2.77143 3.12112
upperback -1.74043 4.17652 2.83701
thorax -6.14653 1.9942 0.677343
lowerneck -6.86225 0.343691 -2.29475
upperneck 14.2443 0.0323801 4.77848
head 5.41017 0.21079 1.87401
rclavicle -1.49089e-015 -1.78906e-014
rhumerus -43.7851 18.0954 -80.7028
rradius 102.211
rwrist 17.8985
rhand -26.5946 -27.9693
rfingers 7.12502
rthumb -0.0285105 -57.9491
lclavicle -1.49089e-015 -1.78906e-014
lhumerus -18.2788 -14.4313 83.6706
lradius 92.5555
lwrist 5.39325
lhand -34.5536 16.4938
lfingers 7.12502
lthumb -7.71391 46.3331
rfemur 10.7173 -4.10061 12.8803
rtibia 39.8817
rfoot -32.8998 -29.9352
rtoes -32.0681
lfemur -65.8988 29.523 -11.4172
ltibia 80.0944
lfoot -16.519 1.3725
ltoes -0.897711
4
root -2.73191 13.9138 -35.8813 7.93556 -22.5924 -10.7333
lowerback 7.6968 2.77236 3.08578
upperback -1.74167 4.17265 2.83048
thorax -6.13489 1.99374 0.691943
lowerneck -6.89027 0.340681 -2.27846
upperneck 14.2501 0.0281761 4.76651
head 5.417 0.209173 1.86748
rclavicle 9.98893e-015 2.98177e-014
rhumerus -43.7735 18.093 -80.7002
rradius 102.202
rwrist 17.845
rhand -26.5545 -27.9184
rfingers 7.12502
rthumb 0.0101798 -57.8981
lclavicle 9.98893e-015 2.98177e-014
lhumerus -18.2716 -14.44 83.6647
lradius 92.5512
lwrist 5.43588
lhand -34.5666 16.5649
lfingers 7.12502
lthumb -7.72651 46.4037
rfemur 10.7008 -4.09391 12.8542
rtibia 39.8985
rfoot -32.9709 -29.8744
rtoes -32.1666
lfemur -65.9095 29.5053 -11.4396
ltibia 80.0948
lfoot -16.5082 1.38315
ltoes -0.926081
5
root -2.7327 13.9133 -35.8807 7.94276 -22.5798 -10.7385
lowerback 7.70618 2.7679 3.10075
upperback -1.74232 4.16882 2.83315
thorax -6.14013 1.99124 0.686399
lowerneck -6.75184 0.338041 -2.19326
upperneck 14.0966 0.0330403 4.66103
head 5.34585 0.206259 1.81849
rclavicle 2.73826e-014 -9.54166e-015
rhumerus -43.7577 18.0596 -80.6792
rradius 102.194
rwrist 17.7951
rhand -26.587 -27.5702
rfingers 7.12502
rthumb -0.0212346 -57.55
lclavicle 2.73826e-014 -9.54166e-015
lhumerus -18.2741 -14.4548 83.6505
lradius 92.5785
lwrist 5.49983
lhand -34.6368 16.5319
lfingers 7.12502
lthumb -7.79422 46.3683
rfemur 10.6899 -4.12666 12.8562
rtibia 39.9131
rfoot -32.9286 -29.9134
rtoes -32.1564
lfemur -65.9181 29.4841 -11.4274
ltibia 80.1045
lfoot -16.5192 1.38932
ltoes -0.866197
6
root -2.73389 13.9128 -35.8796 7.94825 -22.5938 -10.7259
lowerback 7.69842 2.76517 3.07927
upperback -1.7561 4.16277 2.82274
thorax -6.15097 1.98868 0.688306
lowerneck -6.86247 0.336357 -2.29796
upperneck 14.2329 0.0187056 4.80895
head 5.40711 0.20592 1.8831
rclavicle 6.22444e-014 1.35174e-014
rhumerus -43.7749 18.0775 -80.7288
rradius 102.181
rwrist 17.8037
rhand -26.5885 -27.9714
rfingers 7.12502
rthumb -0.0226036 -57.9512
lclavicle 6.22444e-014 1.35174e-014
lhumerus -18.2627 -14.4517 83.6413
lradius 92.5512
lwrist 5.48965
lhand -34.5547 16.5077
lfingers 7.12502
lthumb -7.71502 46.347
rfemur 10.6673 -4.11134 12.8499
rtibia 39.926
rfoot -32.9179 -29.9535
rtoes -32.0426
lfemur -65.9144 29.4855 -11.4333
ltibia 80.1046
lfoot -16.5237 1.41032
ltoes -0.941011
7
root -2.73487 13.9124 -35.8794 7.94139 -22.5724 -10.6943
lowerback 7.70721 2.76374 3.05781
upperback -1.75937 4.15844 2.80601
thorax -6.15963 1.98689 0.682789
lowerneck -6.87884 0.332375 -2.29247
upperneck 14.238 0.00935223 4.83148
head 5.4118 0.203416 1.88877
rclavicle -1.38404e-014 -2.38542e-015
rhumerus -43.7737 18.03 -80.7379
rradius 102.161
rwrist 17.8052
rhand -26.5969 -28.0029
rfingers 7.12502
rthumb -0.0307934 -57.9826
lclavicle -1.38404e-014 -2.38542e-015
lhumerus -18.2345 -14.4841 83.6312
lradius 92.5521
lwrist 5.50163
lhand -34.5711 16.512
lfingers 7.12502
lthumb -7.73084 46.3507
rfemur 10.671 -4.13295 12.8244
rtibia 39.9329
rfoot -32.8975 -29.9809
rtoes -32.1056
lfemur -65.9198 29.444 -11.4571
ltibia 80.1072
lfoot -16.5154 1.42456
ltoes -0.911343
8
root -2.73607 13.9124 -35.8781 7.93955 -22.578 -10.6842
lowerback 7.70813 2.7576 3.03601
upperback -1.76469 4.14868 2.81035
thorax -6.16769 1.98286 0.700469
lowerneck -6.86399 0.332715 -2.3179
upperneck 14.2436 0.00917361 4.85439
head 5.41092 0.203365 1.90014
rclavicle -3.10104e-014 1.78906e-014
rhumerus -43.7757 18.0388 -80.7384
rradius 102.149
rwrist 17.8056
rhand -26.5807 -27.9242
rfingers 7.12502
rthumb -0.0151553 -57.904
lclavicle -3.10104e-014 1.78906e-014
lhumerus -18.2367 -14.475 83.6224
lradius 92.5586
lwrist 5.50002
lhand -34.5785 16.5717
lfingers 7.12502
lthumb -7.73799 46.4101
rfemur 10.6779 -4.12464 12.8165
rtibia 39.9331
rfoot -32.951 -29.9312
rtoes -31.9617
lfemur -65.9127 29.442 -11.4596
ltibia 80.1099
lfoot -16.5174 1.44871
ltoes -1.02174
9
root -2.73757 13.9122 -35.8764 7.94024 -22.5817 -10.667
lowerback 7.67112 2.75404 3.02267
upperback -1.74998 4.13953 2.80249
thorax -6.13133 1.97938 0.703072
lowerneck -6.85541 0.33483 -2.31572
upperneck 14.2183 0.0115752 4.86134
head 5.40149 0.204847 1.90183
rclavicle -1.06822e-013 -3.65764e-014
rhumerus -43.7688 18.0292 -80.74
rradius 102.153
rwrist 17.8432
rhand -26.4832 -27.938
rfingers 7.12502
rthumb 0.0790571 -57.9177
lclavicle -1.06822e-013 -3.65764e-014
lhumerus -18.1876 -14.4761 83.594
lradius 92.5456
lwrist 5.50998
lhand -34.5867 16.4872
lfingers 7.12502
lthumb -7.74584 46.3253
rfemur 10.6786 -4.13098 12.7988
rtibia 39.9226
rfoot -32.8861 -29.9847
rtoes -32.0054
lfemur -65.9124 29.4404 -11.4732
ltibia 80.1154
lfoot -16.5279 1.46714
ltoes -1.00593
10
root -2.73865 13.9125 -35.8744 7.94266 -22.5844 -10.6126
lowerback 7.64488 2.75984 2.97034
upperback -1.74948 4.14001 2.78814
thorax -6.11829 1.98158 0.718444
lowerneck -6.87064 0.318729 -2.31422
upperneck 14.2161 -0.0101303 4.86091
head 5.40425 0.194495 1.90008
rclavicle 6.27663e-014 3.97569e-015
rhumerus -43.7522 17.9963 -80.7275
rradius 102.125
rwrist 17.902
rhand -26.5321 -27.9115
rfingers 7.12502
rthumb 0.0318736 -57.8913
lclavicle 6.27663e-014 3.97569e-015
lhumerus -18.159 -14.5004 83.5839
lradius 92.5424
lwrist 5.49588
lhand -34.5445 16.5444
lfingers 7.12502
lthumb -7.70515 46.384
rfemur 10.6825 -4.11703 12.7513
rtibia 39.9066
rfoot -32.9469 -29.9567
rtoes -32.0103
lfemur -65.9284 29.4327 -11.5418
ltibia 80.1154
lfoot -16.528 1.49744
ltoes -1.10703
